PathFileType	4	(X/Y/Z)	./resultDataOpenSim/trcMotMarkerGrf/sub09/qtm-15-04.trc
DataRate	CameraRate	NumFrames	NumMarkers	Units	OrigDataRate	OrigDataStartFrame	OrigNumFrames
250.000000	250.000000	13	24	m	250.000000	122	484
Frame#	Time	L.Toe.Tip			R.Toe.Tip			L.Ankle.Lat			R.Ankle.Lat			L.Ankle.Med			R.Ankle.Med			L.Heel			R.Heel			L.Knee.Lat			R.Knee.Lat			L.Knee.Med			R.Knee.Med			L.Thigh.Upper			R.Thigh.Upper			L.ASIS			R.ASIS			V.Sacral			L.Acromium			R.Acromium			C7			L.Elbow			R.Elbow			L.Wrist.Lat			R.Wrist.Lat
		X1	Y1	Z1	X2	Y2	Z2	X3	Y3	Z3	X4	Y4	Z4	X5	Y5	Z5	X6	Y6	Z6	X7	Y7	Z7	X8	Y8	Z8	X9	Y9	Z9	X10	Y10	Z10	X11	Y11	Z11	X12	Y12	Z12	X13	Y13	Z13	X14	Y14	Z14	X15	Y15	Z15	X16	Y16	Z16	X17	Y17	Z17	X18	Y18	Z18	X19	Y19	Z19	X20	Y20	Z20	X21	Y21	Z21	X22	Y22	Z22	X23	Y23	Z23	X24	Y24	Z24

122	0.484	-0.30183244	0.077760305	-0.027740684	-0.67125692	0.039000084	0.094914772	-0.45222803	0.094424593	-0.059580309	-0.81939733	0.056404459	0.1190897	-0.42950124	0.11387929	0.035382677	-0.80383588	0.093349676	0.028815602	-0.51382581	0.046277679	-0.008663418	-0.88564491	0.035016254	0.065649979	-0.45242859	0.51375817	-0.08890893	-0.6950693	0.49920674	0.18549564	-0.4546295	0.50864033	0.035592395	-0.70781732	0.49002057	0.056817787	-0.63193376	0.89497327	-0.13055184	-0.68073984	0.9047996	0.23974267	-0.56468322	0.98236021	-0.064696855	-0.57209075	0.98608223	0.17526329	-0.73203271	1.0400782	0.04661513	-0.57483012	1.4327029	-0.11949582	-0.57840297	1.4479748	0.20873691	-0.63901185	1.4904521	0.045949613	-0.75368792	1.1127813	-0.16926155	-0.70201747	1.0998306	0.31488294	-0.65566745	0.86966034	-0.21150306	-0.48077013	0.92958415	0.28099728
123	0.488	-0.28245685	0.080495985	-0.026814417	-0.67122199	0.038959272	0.094939578	-0.43334602	0.093229973	-0.059008863	-0.819374	0.056423592	0.11886988	-0.41127925	0.11342014	0.03596475	-0.80358343	0.093344024	0.028595497	-0.49360156	0.043693075	-0.008072385	-0.88562511	0.03517111	0.06544311	-0.44597218	0.51229676	-0.089083404	-0.69334828	0.49886824	0.18556828	-0.44811529	0.50730196	0.035361598	-0.70581049	0.48966225	0.056870444	-0.62544649	0.89367371	-0.13049972	-0.6752873	0.90406243	0.23970145	-0.55802258	0.98111071	-0.064588406	-0.56627685	0.98496049	0.17547183	-0.72561666	1.0389684	0.046418611	-0.56880092	1.4316484	-0.11961498	-0.57258372	1.4470551	0.20866556	-0.63309105	1.4894008	0.045813967	-0.74804603	1.1121417	-0.16910751	-0.69553144	1.0987247	0.31537364	-0.65213999	0.86845937	-0.21209051	-0.47342957	0.92970992	0.28098183
124	0.492	-0.26331053	0.083516227	-0.025774045	-0.67118155	0.038909173	0.094958531	-0.41456982	0.09233745	-0.058449282	-0.81937394	0.056433468	0.11862939	-0.3932406	0.11319165	0.036542331	-0.80332186	0.093336544	0.028363151	-0.4734986	0.041458232	-0.0075430776	-0.88558879	0.035343783	0.065182243	-0.43961008	0.51074345	-0.089324536	-0.69140562	0.49848916	0.18567489	-0.44172112	0.50584148	0.03509232	-0.70375995	0.48928704	0.056979174	-0.61897609	0.89227673	-0.13041688	-0.66983275	0.90327979	0.23965354	-0.55133552	0.97977729	-0.064461092	-0.56020794	0.9838432	0.17567443	-0.71916929	1.0377915	0.046200786	-0.56277847	1.4305311	-0.11976476	-0.56674979	1.4460693	0.20858369	-0.62714708	1.4882901	0.045665119	-0.74239616	1.1114236	-0.16893968	-0.68907144	1.097556	0.31585003	-0.64852374	0.86720386	-0.21267073	-0.46610486	0.92973697	0.28098873
125	0.496	-0.24442596	0.086803861	-0.024617194	-0.6711396	0.038841358	0.09497654	-0.39591918	0.091740683	-0.057876011	-0.81935638	0.056498038	0.11838984	-0.37535987	0.11327933	0.037189691	-0.80305839	0.093331408	0.028132711	-0.4535583	0.039566879	-0.0070642244	-0.88553749	0.035534017	0.064885314	-0.43331291	0.5090954	-0.089621319	-0.68936206	0.49806407	0.18577299	-0.4354486	0.50424481	0.034827037	-0.70163748	0.48890701	0.057136215	-0.61253789	0.89078571	-0.13028302	-0.66438395	0.90246113	0.23960518	-0.5446274	0.9783602	-0.064313762	-0.5540056	0.98271345	0.17588145	-0.71270349	1.0365472	0.045972731	-0.5567477	1.4293374	-0.11992909	-0.56092284	1.4450196	0.20850294	-0.62118322	1.4871186	0.045505557	-0.73666451	1.1106101	-0.16885625	-0.6826988	1.0963367	0.31634743	-0.64481673	0.86590348	-0.21323872	-0.45879908	0.92966143	0.28101658
126	0.5	-0.22584003	0.090324547	-0.023366141	-0.67109548	0.038760287	0.095006702	-0.37744798	0.091429435	-0.057289506	-0.81928166	0.056676163	0.11815558	-0.35763831	0.11374269	0.037915916	-0.80279157	0.093330282	0.027900132	-0.43382576	0.038003315	-0.0066179871	-0.88547511	0.03574034	0.064571619	-0.42703568	0.50737114	-0.089940047	-0.68726492	0.49759007	0.18586613	-0.42924424	0.50250674	0.034639955	-0.69943135	0.48851824	0.05729898	-0.60610514	0.88920801	-0.13010461	-0.65893033	0.90160395	0.23954392	-0.53790944	0.976864	-0.06414796	-0.5477601	0.98155028	0.17609515	-0.70622564	1.0352343	0.045742136	-0.55069778	1.4280631	-0.12008722	-0.55512852	1.4439065	0.20842971	-0.61520631	1.4858832	0.045332668	-0.7307833	1.1096901	-0.16895232	-0.67635428	1.095054	0.31683114	-0.64103459	0.86457011	-0.21379922	-0.45151822	0.92947912	0.28105944
127	0.504	-0.20759779	0.094041106	-0.022044997	-0.67104692	0.038695498	0.095066455	-0.35922831	0.091401822	-0.056716194	-0.81913979	0.056986238	0.11791697	-0.34015747	0.11456818	0.038650072	-0.80251786	0.093330536	0.027654469	-0.41433872	0.036747018	-0.0061899635	-0.88540709	0.035959185	0.064252548	-0.42073843	0.50560411	-0.090254704	-0.68509678	0.49706032	0.18599724	-0.42298867	0.50063964	0.034614846	-0.69713638	0.488106	0.057425215	-0.59963204	0.88755004	-0.12990834	-0.65346825	0.90070671	0.23946275	-0.53119398	0.9752973	-0.06396474	-0.5415046	0.98033798	0.17631263	-0.69973058	1.0338501	0.045515897	-0.54462375	1.4267157	-0.1202289	-0.54935604	1.4427281	0.20835822	-0.60922878	1.4845831	0.045150065	-0.72479622	1.1086795	-0.16917548	-0.66995529	1.0936925	0.31725349	-0.63717327	0.86320493	-0.21437916	-0.44425968	0.92919383	0.28111344
128	0.508	-0.18974417	0.09792501	-0.020686836	-0.67099383	0.038681966	0.095163199	-0.3413103	0.091659734	-0.056182451	-0.8189669	0.05737183	0.11767241	-0.32303388	0.11566636	0.039289315	-0.80224044	0.093329853	0.027393376	-0.39512908	0.035776826	-0.0057935401	-0.88533935	0.03618911	0.063930163	-0.41440277	0.50382012	-0.090542838	-0.68290476	0.49646309	0.18615804	-0.4165609	0.49866987	0.034790359	-0.69473643	0.48766084	0.057504262	-0.59310098	0.8858159	-0.12971422	-0.64800832	0.89976949	0.23937393	-0.52448887	0.97367017	-0.063764769	-0.53525368	0.9790711	0.1765316	-0.69321268	1.0323883	0.045306162	-0.53852317	1.4253076	-0.12035958	-0.54356781	1.4414835	0.20827552	-0.60326841	1.4832219	0.044975306	-0.71881876	1.1076021	-0.16935944	-0.66348933	1.0922542	0.31760663	-0.63319822	0.86179323	-0.21500733	-0.43701547	0.92881605	0.28117596
129	0.512	-0.17230444	0.10196352	-0.019353439	-0.67094268	0.038713285	0.095272297	-0.32370606	0.092188701	-0.055699788	-0.81882684	0.057730766	0.1174336	-0.30632023	0.11692149	0.039777523	-0.80196908	0.093333451	0.027126558	-0.37623075	0.035070703	-0.005476211	-0.88527365	0.036437154	0.063599955	-0.40801203	0.50204125	-0.09076295	-0.68079165	0.49581019	0.18624236	-0.40991639	0.49662244	0.035134682	-0.69222148	0.4871797	0.057550456	-0.58651492	0.88400974	-0.12953654	-0.64254363	0.89878145	0.23927994	-0.51779614	0.97199436	-0.063550455	-0.52901537	0.97775195	0.17674961	-0.68668394	1.0308428	0.045128523	-0.5324006	1.4238481	-0.12049464	-0.5377541	1.4401782	0.20817569	-0.59732613	1.4818047	0.044814706	-0.71289441	1.1064563	-0.16939889	-0.65698788	1.0907508	0.31790641	-0.62908608	0.86031703	-0.21566466	-0.42978494	0.92835152	0.28124668
130	0.516	-0.15528541	0.10615096	-0.018091347	-0.67090657	0.038734211	0.095344212	-0.30642398	0.09295214	-0.055283542	-0.81875581	0.058014734	0.11721381	-0.29000722	0.11825841	0.040136048	-0.80170509	0.093357147	0.026869602	-0.3576761	0.034597868	-0.0052945965	-0.88520506	0.036716063	0.063254393	-0.40152811	0.50029106	-0.09086534	-0.67873997	0.49514281	0.18617138	-0.40311511	0.4945118	0.035574205	-0.68960075	0.48666312	0.057575695	-0.57988324	0.88213395	-0.12938361	-0.63705579	0.89773579	0.23917283	-0.51111252	0.97027813	-0.06332772	-0.52278416	0.9763826	0.176963	-0.6801813	1.0292132	0.044973463	-0.52626498	1.422338	-0.12064938	-0.53193889	1.4388202	0.20806699	-0.59134779	1.4803282	0.044620306	-0.70698804	1.1052277	-0.16931141	-0.65047918	1.0891888	0.31816526	-0.62486001	0.85877203	-0.21629568	-0.42257597	0.92779622	0.28132948
131	0.52	-0.13871053	0.11044942	-0.016885365	-0.67089175	0.038700761	0.095359956	-0.28949745	0.093906245	-0.054960963	-0.81873928	0.058251359	0.11701725	-0.27408845	0.11965307	0.040410212	-0.80143405	0.093416341	0.026633513	-0.33948733	0.034316061	-0.0052967325	-0.88512919	0.037035595	0.062888232	-0.39490054	0.49858512	-0.090826034	-0.67656577	0.49447994	0.18602872	-0.39631809	0.49235683	0.036016061	-0.68687686	0.48611878	0.057591786	-0.57322191	0.88018932	-0.1292485	-0.63154294	0.89664278	0.23906046	-0.50443256	0.96852256	-0.063102857	-0.51655233	0.97496305	0.1771674	-0.67374746	1.0275039	0.044753427	-0.52011902	1.4207726	-0.12083032	-0.52613079	1.4374079	0.20795359	-0.58524888	1.4787826	0.044315059	-0.7010728	1.1039228	-0.16919859	-0.64397555	1.0875678	0.31838622	-0.62056635	0.85717035	-0.21688134	-0.41539757	0.92714259	0.28143204
132	0.524	-0.12263863	0.11476756	-0.015693237	-0.67088799	0.03862387	0.095355544	-0.27297199	0.095016485	-0.05473681	-0.8187426	0.058479928	0.11683964	-0.25858658	0.1210922	0.04062909	-0.80114045	0.093511078	0.026418108	-0.32169232	0.034188186	-0.0055157192	-0.88504891	0.037400692	0.062503806	-0.38808354	0.49692994	-0.090658302	-0.67412632	0.49378727	0.18596437	-0.38969074	0.49019612	0.036382999	-0.68402296	0.48555695	0.057625025	-0.56654086	0.87818161	-0.12911496	-0.62600205	0.89550947	0.23895165	-0.49775299	0.96672789	-0.062877296	-0.51031949	0.97349509	0.17735685	-0.66741307	1.0257345	0.044291814	-0.51395584	1.4191483	-0.12103084	-0.52030662	1.4359341	0.20782489	-0.57902807	1.4771723	0.04390139	-0.69511021	1.102565	-0.1691941	-0.63747461	1.0858883	0.31856568	-0.6162325	0.85552691	-0.21745412	-0.40825336	0.92639024	0.28155918
133	0.528	-0.10711473	0.11901206	-0.014481934	-0.67088133	0.038538191	0.095370988	-0.25688111	0.096258546	-0.054575134	-0.81873889	0.05871777	0.11667505	-0.2435509	0.12254169	0.040825223	-0.80081703	0.093634974	0.026215393	-0.30435859	0.034203286	-0.0059449993	-0.88496897	0.037814018	0.062109561	-0.38105095	0.49533235	-0.090406628	-0.67143529	0.4930344	0.18601447	-0.38326052	0.48807442	0.036671129	-0.68100949	0.48497915	0.057698287	-0.559839	0.87612249	-0.12897438	-0.62041078	0.89432678	0.23883784	-0.49107315	0.96490062	-0.06265159	-0.50408486	0.97198317	0.1775252	-0.6612241	1.0239615	0.043431468	-0.50776635	1.417466	-0.12123589	-0.51445043	1.4344032	0.20767588	-0.57280036	1.4755253	0.043488642	-0.68901341	1.1011662	-0.16937218	-0.63096146	1.0841544	0.31869452	-0.61185434	0.85384921	-0.21804797	-0.40113788	0.92554589	0.2817027
134	0.532	-0.092122509	0.12313955	-0.013223161	-0.6708679	0.038461738	0.095409923	-0.24124035	0.097603188	-0.054431464	-0.81871381	0.058971293	0.1165164	-0.22903355	0.1239552	0.041038085	-0.80045899	0.093792571	0.026015278	-0.28758196	0.034364854	-0.0065338397	-0.88488684	0.038272172	0.0617109	-0.37382904	0.49380494	-0.090135907	-0.66854114	0.49225676	0.18608921	-0.3769317	0.48602092	0.036934758	-0.67785561	0.4843765	0.057788439	-0.55310837	0.87402501	-0.12883973	-0.61475387	0.8930846	0.23871903	-0.48439533	0.96305303	-0.062433223	-0.49784295	0.97043221	0.1776692	-0.65522823	1.0222563	0.042203116	-0.50154642	1.4157302	-0.12143466	-0.50857811	1.4328326	0.20751524	-0.56666491	1.4738726	0.043170111	-0.68275933	1.0997212	-0.16968859	-0.62441956	1.0823715	0.3187628	-0.60741147	0.85214075	-0.21867162	-0.39404185	0.92461171	0.28184921
